<svg xmlns="http://www.w3.org/2000/svg" viewBox="1882 1736.7 59.2 56.3">
  <defs>
    <style>
      .cls-1 {
        fill: #e84818;
      }
    </style>
  </defs>
  <g id="duracao_do_modulo" transform="translate(1882.2 1735)">
    <path id="Path_191" data-name="Path 191" class="cls-1" d="M59,11.3a1.576,1.576,0,0,0-1.7-1.7H50.8a.265.265,0,0,0-.3.3v4.5a3.255,3.255,0,0,1-3.4,3.4H44.5a5.019,5.019,0,0,1-1.2-.2,3.291,3.291,0,0,1-2.1-3.2V9.9a.265.265,0,0,0-.3-.3H18c-.2,0-.3,0-.3.3v4.5a3.255,3.255,0,0,1-3.4,3.4H11.7a3.255,3.255,0,0,1-3.4-3.4V9.9A.265.265,0,0,0,8,9.6H1.5A1.628,1.628,0,0,0-.2,11.3V56.2C0,57.1.5,58,1.7,58H57.2A1.591,1.591,0,0,0,59,56.2V11.3Zm-44.7,39H6.9V43h7.3v7.3Zm0-9H6.9V34h7.3v7.3Zm0-9H6.9V25h7.3v7.3Zm9.4,18H16.4V43h7.3Zm0-9H16.4V34h7.3Zm0-9H16.4V25h7.3Zm9.5,18H25.9V43h7.3Zm0-9H25.9V34h7.3Zm0-9H25.9V25h7.3Zm8.9,18H34.8V43h7.3Zm0-9H34.8V34h7.3Zm0-9H34.8V25h7.3Zm9.1,18H43.9V43h7.3Zm0-9H43.9V34h7.3Zm0-9H43.9V25h7.3Z"/>
    <path id="Path_192" data-name="Path 192" class="cls-1" d="M11.8,16.1h2.5a1.605,1.605,0,0,0,1.8-1.7V3.4a1.575,1.575,0,0,0-1.7-1.7H12a1.605,1.605,0,0,0-1.8,1.7v11A1.5,1.5,0,0,0,11.8,16.1Z"/>
    <path id="Path_193" data-name="Path 193" class="cls-1" d="M44.7,16.1h2.4a1.591,1.591,0,0,0,1.8-1.8V3.4a1.576,1.576,0,0,0-1.7-1.7H44.8A1.633,1.633,0,0,0,43,3.5V14.4A1.575,1.575,0,0,0,44.7,16.1Z"/>
  </g>
</svg>
