<svg xmlns="http://www.w3.org/2000/svg" viewBox="1877.8 2018.7 59.2 56.2">
  <defs>
    <style>
      .cls-1 {
        fill: #e84818;
      }

      .cls-2 {
        fill: #fff;
      }
    </style>
  </defs>
  <g id="frequencia" transform="translate(-939 1748)">
    <g id="Group_65" data-name="Group 65" transform="translate(2749.2 269)">
      <path id="Path_205" data-name="Path 205" class="cls-1" d="M126.8,11.3a1.575,1.575,0,0,0-1.7-1.7h-6.5a.265.265,0,0,0-.3.3v4.5a3.255,3.255,0,0,1-3.4,3.4h-2.6a5.019,5.019,0,0,1-1.2-.2,3.291,3.291,0,0,1-2.1-3.2V9.9a.265.265,0,0,0-.3-.3H85.8c-.2,0-.3,0-.3.3v4.5a3.255,3.255,0,0,1-3.4,3.4H79.5a3.255,3.255,0,0,1-3.4-3.4V9.9a.265.265,0,0,0-.3-.3H69.3a1.628,1.628,0,0,0-1.7,1.7V56.2a1.572,1.572,0,0,0,1.7,1.7h55.5a1.591,1.591,0,0,0,1.8-1.8V11.5C126.8,11.4,126.8,11.4,126.8,11.3Z"/>
      <path id="Path_206" data-name="Path 206" class="cls-1" d="M79.6,16.1h2.5a1.605,1.605,0,0,0,1.8-1.7V3.4a1.575,1.575,0,0,0-1.7-1.7H79.8A1.605,1.605,0,0,0,78,3.4v11A1.5,1.5,0,0,0,79.6,16.1Z"/>
      <path id="Path_207" data-name="Path 207" class="cls-1" d="M112.5,16.1h2.4a1.591,1.591,0,0,0,1.8-1.8V3.4A1.575,1.575,0,0,0,115,1.7h-2.4a1.633,1.633,0,0,0-1.8,1.8V14.4A1.529,1.529,0,0,0,112.5,16.1Z"/>
    </g>
    <rect id="Rectangle_113" data-name="Rectangle 113" class="cls-2" width="44.3" height="25.3" transform="translate(2824.3 293.9)"/>
    <path id="Path_208" data-name="Path 208" class="cls-1" d="M113.7,30.6l-2-2.2L95.9,42.7l-6.2-6.8-2.1,2,8,8.8h0l.1.1Z" transform="translate(2749.2 269)"/>
  </g>
</svg>
