<svg xmlns="http://www.w3.org/2000/svg" viewBox="1873.5 2168.573 75.212 56.427">
  <defs>
    <style>
      .cls-1 {
        fill: #fff;
      }

      .cls-2 {
        fill: #e84818;
      }
    </style>
  </defs>
  <g id="material" transform="translate(-1319 1898)">
    <path id="Path_194" data-name="Path 194" class="cls-1" d="M233.4,47.5a32.635,32.635,0,0,0-13.3-2.7,32.307,32.307,0,0,0-13.3,2.7V8.8a1.445,1.445,0,0,1,1.1-1.6,31.856,31.856,0,0,1,24.8.1,1.011,1.011,0,0,1,.8,1.1C233.4,21.3,233.4,34.3,233.4,47.5Zm-3.2-8.4c0-.6-.5-1-1.3-1.3a28.505,28.505,0,0,0-17.8,0,1.691,1.691,0,0,0-1,.7,1.506,1.506,0,0,0-.1,1.8c.5.8,1.3.7,2.1.5a32.509,32.509,0,0,1,4.2-1.1,23.67,23.67,0,0,1,11.8,1.1C229.3,41.3,230.2,40.5,230.2,39.1Zm0-28.1c0-.9-.4-1.4-1.4-1.7a27.884,27.884,0,0,0-17.6,0c-1.1.4-1.6,1.1-1.4,2.1.2.9,1.1,1.3,2.3,1a38.771,38.771,0,0,1,4.9-1.1,25.182,25.182,0,0,1,11.2,1.2A1.544,1.544,0,0,0,230.2,11Zm0,18.7c0-.7-.6-1.2-1.4-1.5a29.288,29.288,0,0,0-11.4-1.3,35.28,35.28,0,0,0-6.3,1.3,1.539,1.539,0,0,0-1.2,2,1.719,1.719,0,0,0,2.1,1.1,3.091,3.091,0,0,1,.8-.2c1.3-.3,2.6-.7,3.9-.9a26.46,26.46,0,0,1,11.5,1.1C229.3,31.7,230.2,31,230.2,29.7Zm-11-12.3a28.091,28.091,0,0,0-8,1.4,1.608,1.608,0,1,0,.8,3.1,1.854,1.854,0,0,0,.7-.2,25.517,25.517,0,0,1,6.6-1.2,27.332,27.332,0,0,1,9,1.4,1.4,1.4,0,0,0,1.9-1.4c0-1-.5-1.4-1.4-1.7A30.831,30.831,0,0,0,219.2,17.4Z" transform="translate(2995.2 269)"/>
    <path id="Path_195" data-name="Path 195" class="cls-1" d="M236.5,47.3V8.7a1.3,1.3,0,0,1,.9-1.4,31.553,31.553,0,0,1,25.2.1c.5.2.6.4.6,1V47.3a38.023,38.023,0,0,0-13.3-2.7A34.86,34.86,0,0,0,236.5,47.3Zm12.2-10.9c-.6,0-1.2.1-1.8.1a31.545,31.545,0,0,0-6.1,1.3,1.42,1.42,0,0,0-1.1,1.8,1.507,1.507,0,0,0,1.8,1.2c.5-.1.9-.2,1.4-.3a23.885,23.885,0,0,1,8.8-1,22.124,22.124,0,0,1,6.2,1.3A1.539,1.539,0,0,0,260,40c.4-.9-.1-1.8-1.2-2.3A31.885,31.885,0,0,0,248.7,36.4Zm11.2-6.5a1.805,1.805,0,0,0-1.4-1.7A28.343,28.343,0,0,0,246.6,27a28.649,28.649,0,0,0-5.8,1.3,1.541,1.541,0,1,0,.7,3,3.178,3.178,0,0,0,.9-.3c1.3-.3,2.6-.7,4-.9A25.371,25.371,0,0,1,258,31.3,1.4,1.4,0,0,0,259.9,29.9Zm-10.2-9.3A24.923,24.923,0,0,1,258,22a1.44,1.44,0,0,0,1.9-1.4,1.805,1.805,0,0,0-1.4-1.7,25.709,25.709,0,0,0-5.5-1.2A29.114,29.114,0,0,0,240.6,19a1.528,1.528,0,0,0,.4,3,2.954,2.954,0,0,0,1.3-.2A21.625,21.625,0,0,1,249.7,20.6Zm-.4-12.7a24.38,24.38,0,0,0-8.2,1.4,1.692,1.692,0,0,0-1.4,2.1,1.737,1.737,0,0,0,2.3,1,38.771,38.771,0,0,1,4.9-1.1,25.182,25.182,0,0,1,11.2,1.2A1.352,1.352,0,0,0,260,11c0-1-.6-1.4-1.4-1.7A28.717,28.717,0,0,0,249.3,7.9Z" transform="translate(2995.2 269)"/>
    <path id="Path_196" data-name="Path 196" class="cls-2" d="M270.6,12.4c-1.1,0-2.3-.1-3.4,0-.8,0-1-.3-1-1,.1-1.3-.1-2.6,0-3.8a2.351,2.351,0,0,0-1.7-2.7,35.022,35.022,0,0,0-28.7-.3,1.91,1.91,0,0,1-1.8,0C224.3.5,214.6.5,205,5a2.165,2.165,0,0,0-1.4,2.3c.1,1.4,0,2.8,0,4.2,0,.7-.2,1-.9.9-1.1-.1-2.2,0-3.3,0-1.7,0-2.1.4-2.1,2.1V55.8c0,1.7.4,2.2,2.2,2.2h70.9c1.6,0,2.1-.5,2.1-2V14.4C272.6,12.9,272.1,12.4,270.6,12.4ZM237.4,7.3a31.553,31.553,0,0,1,25.2.1c.5.2.6.4.6,1V47.3a38.023,38.023,0,0,0-13.3-2.7,34.86,34.86,0,0,0-13.4,2.7V8.7A1.3,1.3,0,0,1,237.4,7.3Zm-29.6-.1a31.856,31.856,0,0,1,24.8.1,1.011,1.011,0,0,1,.8,1.1V47.5a32.635,32.635,0,0,0-13.3-2.7,32.307,32.307,0,0,0-13.3,2.7V8.8C206.8,7.9,207,7.5,207.8,7.2Z" transform="translate(2995.2 269)"/>
    <path id="Path_197" data-name="Path 197" class="cls-2" d="M230.2,39.1c0,1.4-.9,2.2-2,1.8a23.67,23.67,0,0,0-11.8-1.1,32.511,32.511,0,0,0-4.2,1.1,1.715,1.715,0,0,1-2.1-.5,1.5,1.5,0,0,1,.1-1.8,2.552,2.552,0,0,1,1-.7,28.505,28.505,0,0,1,17.8,0A1.486,1.486,0,0,1,230.2,39.1Z" transform="translate(2995.2 269)"/>
    <path id="Path_198" data-name="Path 198" class="cls-2" d="M230.2,11a1.368,1.368,0,0,1-2,1.4A24.878,24.878,0,0,0,217,11.2a38.77,38.77,0,0,0-4.9,1.1c-1.2.3-2.1,0-2.3-1-.3-1,.2-1.7,1.4-2.1a27.884,27.884,0,0,1,17.6,0C229.7,9.6,230.2,10.1,230.2,11Z" transform="translate(2995.2 269)"/>
    <path id="Path_199" data-name="Path 199" class="cls-2" d="M230.2,29.7c0,1.3-.9,2-2,1.6a25.034,25.034,0,0,0-11.5-1.1c-1.3.2-2.6.6-3.9.9a3.091,3.091,0,0,1-.8.2,1.684,1.684,0,0,1-2.1-1.1,1.539,1.539,0,0,1,1.2-2,31.992,31.992,0,0,1,6.3-1.3,29.288,29.288,0,0,1,11.4,1.3C229.6,28.5,230.2,28.9,230.2,29.7Z" transform="translate(2995.2 269)"/>
    <path id="Path_200" data-name="Path 200" class="cls-2" d="M219.2,17.4a30.378,30.378,0,0,1,9.6,1.4,1.805,1.805,0,0,1,1.4,1.7,1.4,1.4,0,0,1-1.9,1.4,27.332,27.332,0,0,0-9-1.4,24.073,24.073,0,0,0-6.6,1.2,1.854,1.854,0,0,1-.7.2,1.72,1.72,0,0,1-2.1-1.1c-.2-.9.3-1.6,1.3-2A28.091,28.091,0,0,1,219.2,17.4Z" transform="translate(2995.2 269)"/>
    <path id="Path_201" data-name="Path 201" class="cls-2" d="M248.7,36.4a27.944,27.944,0,0,1,9.9,1.4c1.2.4,1.7,1.3,1.2,2.3-.4.9-1.1,1.1-2.1.8a21.407,21.407,0,0,0-6.2-1.3,23.885,23.885,0,0,0-8.8,1,5.768,5.768,0,0,1-1.4.3,1.507,1.507,0,0,1-1.8-1.2,1.382,1.382,0,0,1,1.1-1.8,31.545,31.545,0,0,1,6.1-1.3C247.5,36.5,248.1,36.5,248.7,36.4Z" transform="translate(2995.2 269)"/>
    <path id="Path_202" data-name="Path 202" class="cls-2" d="M259.9,29.9a1.4,1.4,0,0,1-1.9,1.4,26.807,26.807,0,0,0-11.6-1.2c-1.4.2-2.7.6-4,.9l-.9.3a1.635,1.635,0,0,1-1.9-1.2,1.441,1.441,0,0,1,1.2-1.8,28.648,28.648,0,0,1,5.8-1.3,28.182,28.182,0,0,1,11.9,1.2A1.7,1.7,0,0,1,259.9,29.9Z" transform="translate(2995.2 269)"/>
    <path id="Path_203" data-name="Path 203" class="cls-2" d="M249.7,20.6a20.7,20.7,0,0,0-7.3,1.2,5.067,5.067,0,0,1-1.3.2,1.528,1.528,0,0,1-.4-3,28.788,28.788,0,0,1,12.4-1.3,25.709,25.709,0,0,1,5.5,1.2,1.805,1.805,0,0,1,1.4,1.7,1.44,1.44,0,0,1-1.9,1.4A23.531,23.531,0,0,0,249.7,20.6Z" transform="translate(2995.2 269)"/>
    <path id="Path_204" data-name="Path 204" class="cls-2" d="M249.3,7.9a33.51,33.51,0,0,1,9.2,1.3c.8.3,1.4.7,1.4,1.7a1.431,1.431,0,0,1-1.9,1.5,24.878,24.878,0,0,0-11.2-1.2,38.77,38.77,0,0,0-4.9,1.1c-1.1.3-2.1-.1-2.3-1-.3-.9.3-1.7,1.4-2.1A27.08,27.08,0,0,1,249.3,7.9Z" transform="translate(2995.2 269)"/>
  </g>
</svg>
