<svg xmlns="http://www.w3.org/2000/svg" viewBox="1286.678 4324.372 346.725 346.726">
  <defs>
    <style>
      .cls-1 {
        fill: #f4ac28;
      }

      .cls-2 {
        fill: none;
      }

      .cls-3 {
        fill: #30368c;
      }

      .cls-4 {
        fill: #fff;
      }

      .cls-5 {
        fill: #e84710;
      }
    </style>
  </defs>
  <g id="modulo3" transform="translate(1286.678 4324.372)">
    <path id="Path_59" data-name="Path 59" class="cls-1" d="M268.045,437.926H84.28c-44.207,0-81.48-36.406-81.48-81.481V172.681C2.8,128.473,39.206,91.2,84.28,91.2H268.045c44.208,0,81.48,36.406,81.48,81.481V356.445A81.386,81.386,0,0,1,268.045,437.926Z" transform="translate(-2.8 -91.2)"/>
    <rect id="Rectangle_53" data-name="Rectangle 53" class="cls-2" width="198.5" height="123.954" transform="translate(73.679 90.149)"/>
    <path id="Path_60" data-name="Path 60" class="cls-3" d="M232.9,98.7H33.538A25.156,25.156,0,0,0,8.4,123.838V247.792A25.156,25.156,0,0,0,33.538,272.93h86.681V292H79.479a12.135,12.135,0,0,0,0,24.271H186.964a12.135,12.135,0,0,0,0-24.271h-40.74V272.93H232.9a25.156,25.156,0,0,0,25.138-25.138V123.838A25.156,25.156,0,0,0,232.9,98.7Z" transform="translate(40.142 -33.689)"/>
    <path id="Path_61" data-name="Path 61" class="cls-4" d="M210.667,225.554H11.3V101.6H210.667Z" transform="translate(62.379 -11.451)"/>
    <path id="Path_62" data-name="Path 62" class="cls-5" d="M22.9,111.2h9.535a5.593,5.593,0,0,1,5.2,5.2v9.535a5.593,5.593,0,0,1-5.2,5.2H22.9a5.593,5.593,0,0,1-5.2-5.2V116.4A5.593,5.593,0,0,1,22.9,111.2Z" transform="translate(111.455 62.163)"/>
    <path id="Path_63" data-name="Path 63" class="cls-5" d="M25.6,111.2h9.535a5.593,5.593,0,0,1,5.2,5.2v9.535a5.593,5.593,0,0,1-5.2,5.2H25.6a5.593,5.593,0,0,1-5.2-5.2V116.4A5,5,0,0,1,25.6,111.2Z" transform="translate(132.159 62.163)"/>
    <path id="Path_64" data-name="Path 64" class="cls-5" d="M28.349,111.2h9.535a5.593,5.593,0,0,1,5.2,5.2v9.535a5.593,5.593,0,0,1-5.2,5.2H28.349a5.593,5.593,0,0,1-5.2-5.2V116.4C22.282,113.8,24.882,111.2,28.349,111.2Z" transform="translate(151.948 62.163)"/>
    <path id="Path_65" data-name="Path 65" class="cls-5" d="M30.8,111.2h9.535a5.593,5.593,0,0,1,5.2,5.2v9.535a5.593,5.593,0,0,1-5.2,5.2H30.8a5.593,5.593,0,0,1-5.2-5.2V116.4A5.593,5.593,0,0,1,30.8,111.2Z" transform="translate(172.033 62.163)"/>
    <path id="Path_66" data-name="Path 66" class="cls-1" d="M25.5,106.7h9.535a5.593,5.593,0,0,1,5.2,5.2v9.535a5.593,5.593,0,0,1-5.2,5.2H25.5a5.593,5.593,0,0,1-5.2-5.2V111.9A5.593,5.593,0,0,1,25.5,106.7Z" transform="translate(131.392 27.656)"/>
    <path id="Path_67" data-name="Path 67" class="cls-5" d="M28.349,108.5h9.535a5.593,5.593,0,0,1,5.2,5.2v9.535a5.593,5.593,0,0,1-5.2,5.2H28.349a5.593,5.593,0,0,1-5.2-5.2V113.7C22.282,111.1,24.882,108.5,28.349,108.5Z" transform="translate(151.948 41.459)"/>
    <path id="Path_68" data-name="Path 68" class="cls-5" d="M30.8,108.5h9.535a5.593,5.593,0,0,1,5.2,5.2v9.535a5.593,5.593,0,0,1-5.2,5.2H30.8a5.593,5.593,0,0,1-5.2-5.2V113.7A5.593,5.593,0,0,1,30.8,108.5Z" transform="translate(172.033 41.459)"/>
    <path id="Path_69" data-name="Path 69" class="cls-5" d="M30.8,105.8h9.535a5.593,5.593,0,0,1,5.2,5.2v9.535a5.593,5.593,0,0,1-5.2,5.2H30.8a5.593,5.593,0,0,1-5.2-5.2V111A5.593,5.593,0,0,1,30.8,105.8Z" transform="translate(172.033 20.755)"/>
    <path id="Path_70" data-name="Path 70" class="cls-1" d="M25.5,104h9.535a5.593,5.593,0,0,1,5.2,5.2v9.535a5.593,5.593,0,0,1-5.2,5.2H25.5a5.593,5.593,0,0,1-5.2-5.2V109.2A5,5,0,0,1,25.5,104Z" transform="translate(131.392 6.952)"/>
  </g>
</svg>
